<svg width="153" height="18" viewBox="0 0 153 18" fill="none" xmlns="http://www.w3.org/2000/svg">
<path d="M5.09219 17.0488V11.3203L0 0.360071H3.23973L6.60573 7.57719L9.93019 0.360071H13.0869L7.99466 11.3203V17.0488H5.09053H5.09219Z" fill="#017340"/>
<path d="M14.6022 17.0491L21.0816 0.362028H23.3112L29.8754 17.0491H26.6772L24.9942 12.7195H19.4817L17.7572 17.0491H14.6005H14.6022ZM20.535 9.74229H23.8595L22.218 4.69164L20.535 9.74229Z" fill="#017340"/>
<path d="M31.4336 17.0488V0.360071H34.6733L41.1528 12.5381V0.360071H44.0569V17.0472L40.8454 17.0555L34.3377 4.91563V17.0472H31.4336V17.0488Z" fill="#017340"/>
<path d="M47.0027 17.0488V0.360071H49.9069V17.0472H47.0027V17.0488Z" fill="#017340"/>
<path d="M70.3571 12.4939H73.6815C73.1067 13.9825 72.1464 15.182 70.799 16.0908C69.4533 17.0013 68.0145 17.4548 66.486 17.4548C64.2697 17.4548 62.3691 16.5909 60.7841 14.8614C59.1991 13.1319 58.4066 11.08 58.4066 8.70423C58.4066 6.32842 59.1925 4.29155 60.7625 2.5936C62.3325 0.893984 64.2132 0.0450089 66.4013 0.0450089C67.9995 0.0450089 69.4832 0.506878 70.8505 1.43228C72.2178 2.35768 73.1898 3.59376 73.7646 5.14219H70.4817C69.9899 4.4959 69.3835 3.98917 68.6624 3.62034C67.9397 3.25151 67.1855 3.0671 66.4013 3.0671C64.999 3.0671 63.7995 3.63031 62.8027 4.7584C61.8058 5.88649 61.3091 7.23223 61.3091 8.79561C61.3091 10.359 61.8208 11.615 62.8442 12.7414C63.8676 13.8695 65.0672 14.4327 66.4428 14.4327C67.2004 14.4327 67.9015 14.2716 68.5461 13.9476C69.1908 13.6253 69.7939 13.1402 70.3554 12.4939H70.3571Z" fill="#017340"/>
<path d="M82.138 0C84.1433 0 85.8579 0.85396 87.2817 2.56022C88.7055 4.26648 89.4166 6.32994 89.4166 8.7506C89.4166 11.1713 88.7005 13.2015 87.2701 14.8845C85.8396 16.5691 84.1284 17.4098 82.1363 17.4098C80.1443 17.4098 78.4082 16.5725 76.971 14.8961C75.5323 13.2198 74.8146 11.1713 74.8146 8.7506C74.8146 6.32994 75.5223 4.2482 76.9395 2.54859C78.3567 0.848976 80.0878 0 82.1363 0H82.138ZM82.138 3.02209C80.8189 3.02209 79.7041 3.57035 78.7919 4.66854C77.8798 5.76672 77.4246 7.0975 77.4246 8.66088C77.4246 10.2243 77.8832 11.5883 78.8019 12.7081C79.7207 13.8278 80.8321 14.3877 82.1363 14.3877C83.4405 14.3877 84.4989 13.8245 85.4392 12.6964C86.3796 11.5683 86.8481 10.2243 86.8481 8.65922C86.8481 7.09418 86.3929 5.76506 85.4807 4.66687C84.5686 3.57035 83.4538 3.02043 82.1363 3.02043L82.138 3.02209Z" fill="#017340"/>
<path d="M91.3536 17.0488V0.360071H94.5933L101.073 12.5381V0.360071H103.977V17.0472L100.765 17.0555L94.2577 4.91563V17.0472H91.3536V17.0488Z" fill="#017340"/>
<path d="M108.523 17.0488V3.38216H105.662V0.360071H114.288V3.38216H111.384V17.0488H108.523Z" fill="#017340"/>
<path d="M115.927 17.0488V0.360071H127.12V3.38216H118.83V7.21667H127.12V10.1939H118.83V14.0284H127.12V17.0505H115.927V17.0488Z" fill="#017340"/>
<path d="M130.066 17.0488V0.360071H133.306L139.785 12.5381V0.360071H142.689V17.0472L139.478 17.0555L132.97 4.91563V17.0472H130.066V17.0488Z" fill="#017340"/>
<path d="M147.235 17.0488V3.38216H144.374V0.360071H153V3.38216H150.096V17.0488H147.235Z" fill="#017340"/>
</svg>
