<svg width="153" height="18" viewBox="0 0 153 18" fill="none" xmlns="http://www.w3.org/2000/svg">
<path d="M5.09219 17.0493V11.3208L0 0.360524H3.23973L6.60572 7.57764L9.93018 0.360524H13.0868L7.99465 11.3208V17.0493H5.09053H5.09219Z" fill="#017340"/>
<path d="M14.6021 17.0493L21.0816 0.362184H23.3112L29.8754 17.0493H26.6772L24.9942 12.7197H19.4817L17.7571 17.0493H14.6005H14.6021ZM20.535 9.74244H23.8595L22.218 4.69179L20.535 9.74244Z" fill="#017340"/>
<path d="M31.4335 17.0493V0.360524H34.6733L41.1527 12.5386V0.360524H44.0569V17.0476L40.8454 17.0559L34.3377 4.91608V17.0476H31.4335V17.0493Z" fill="#017340"/>
<path d="M47.0027 17.0493V0.360524H49.9068V17.0476H47.0027V17.0493Z" fill="#017340"/>
<path d="M70.357 12.4937H73.6815C73.1066 13.9823 72.1463 15.1819 70.7989 16.0907C69.4532 17.0011 68.0144 17.4547 66.4859 17.4547C64.2696 17.4547 62.369 16.5907 60.784 14.8612C59.1991 13.1317 58.4066 11.0799 58.4066 8.70407C58.4066 6.32827 59.1924 4.29139 60.7624 2.59344C62.3324 0.893833 64.2132 0.0448579 66.4012 0.0448579C67.9995 0.0448579 69.4831 0.506727 70.8504 1.43213C72.2178 2.35753 73.1897 3.59361 73.7645 5.14203H70.4816C69.9898 4.49575 69.3834 3.98902 68.6624 3.62019C67.9397 3.25136 67.1854 3.06694 66.4012 3.06694C64.999 3.06694 63.7995 3.63016 62.8026 4.75825C61.8058 5.88634 61.309 7.23207 61.309 8.79545C61.309 10.3588 61.8207 11.6148 62.8442 12.7413C63.8676 13.8694 65.0671 14.4326 66.4428 14.4326C67.2003 14.4326 67.9015 14.2714 68.5461 13.9474C69.1907 13.6251 69.7938 13.14 70.3554 12.4937H70.357Z" fill="#017340"/>
<path d="M82.1379 0C84.1433 0 85.8578 0.853959 87.2816 2.56022C88.7054 4.26647 89.4165 6.32993 89.4165 8.75059C89.4165 11.1712 88.7005 13.2015 87.27 14.8845C85.8395 16.5691 84.1283 17.4098 82.1363 17.4098C80.1443 17.4098 78.4081 16.5725 76.971 14.8961C75.5322 13.2198 74.8145 11.1712 74.8145 8.75059C74.8145 6.32993 75.5222 4.2482 76.9394 2.54859C78.3566 0.848975 80.0878 0 82.1363 0H82.1379ZM82.1379 3.02209C80.8188 3.02209 79.704 3.57035 78.7919 4.66853C77.8798 5.76672 77.4246 7.0975 77.4246 8.66087C77.4246 10.2243 77.8831 11.5883 78.8018 12.708C79.7206 13.8278 80.8321 14.3877 82.1363 14.3877C83.4405 14.3877 84.4988 13.8245 85.4391 12.6964C86.3795 11.5683 86.848 10.2243 86.848 8.65921C86.848 7.09417 86.3928 5.76506 85.4807 4.66687C84.5686 3.57035 83.4538 3.02042 82.1363 3.02042L82.1379 3.02209Z" fill="#017340"/>
<path d="M91.3535 17.0493V0.360524H94.5933L101.073 12.5386V0.360524H103.977V17.0476L100.765 17.0559L94.2577 4.91608V17.0476H91.3535V17.0493Z" fill="#017340"/>
<path d="M108.523 17.0493V3.38261H105.662V0.360524H114.288V3.38261H111.384V17.0493H108.523Z" fill="#017340"/>
<path d="M115.927 17.0493V0.360524H127.12V3.38261H118.83V7.21712H127.12V10.1943H118.83V14.0289H127.12V17.0509H115.927V17.0493Z" fill="#017340"/>
<path d="M130.066 17.0493V0.360524H133.306L139.785 12.5386V0.360524H142.689V17.0476L139.478 17.0559L132.97 4.91608V17.0476H130.066V17.0493Z" fill="#017340"/>
<path d="M147.235 17.0493V3.38261H144.374V0.360524H153V3.38261H150.096V17.0493H147.235Z" fill="#017340"/>
</svg>
